<svg width="24" height="24" viewBox="0 0 24 24" fill="none" xmlns="http://www.w3.org/2000/svg">
<path d="M23.4091 1.63636V1.63579C23.4088 1.35877 23.2986 1.09318 23.1027 0.897298C22.9068 0.701414 22.6412 0.591226 22.3642 0.590909H22.3636H12.5455H12.0455V1.09091V11.4545V11.9545H12.5455H22.9091H23.4091V11.4545V1.63636ZM1.63636 0.590909L1.63579 0.590909C1.35877 0.591226 1.09318 0.701414 0.897298 0.897298C0.701414 1.09318 0.591226 1.35877 0.590909 1.63579V1.63636V11.4545V11.9545H1.09091H11.4545H11.9545V11.4545V1.09091V0.590909H11.4545L1.63636 0.590909ZM0.590909 22.3636L0.590909 22.3642C0.591205 22.6412 0.701389 22.9068 0.897283 23.1027C1.09318 23.2986 1.35879 23.4088 1.63583 23.4091H1.63636H11.4545H11.9545V22.9091V12.5455V12.0455H11.4545H1.09091H0.590909V12.5455L0.590909 22.3636ZM22.3636 23.4091H22.3642C22.6412 23.4088 22.9068 23.2986 23.1027 23.1027C23.2986 22.9068 23.4088 22.6412 23.4091 22.3642V22.3636V12.5455V12.0455H22.9091H12.5455H12.0455V12.5455V22.9091V23.4091H12.5455H22.3636ZM0.833381 0.833381C1.04646 0.620301 1.33534 0.500414 1.63668 0.5H22.3633C22.6647 0.500414 22.9535 0.6203 23.1666 0.833381C23.3798 1.04652 23.4997 1.33551 23.5 1.63694V22.3631C23.4997 22.6645 23.3798 22.9535 23.1666 23.1666C22.9535 23.3798 22.6645 23.4997 22.3631 23.5H1.63692C1.33549 23.4997 1.04651 23.3798 0.833369 23.1666C0.620285 22.9535 0.500401 22.6647 0.5 22.3633V1.63668C0.500414 1.33534 0.620301 1.04646 0.833381 0.833381Z" fill="#FEA500" stroke="#FEA500"/>
</svg>
