<svg width="32" height="34" viewBox="0 0 32 34" fill="none" xmlns="http://www.w3.org/2000/svg">
<g filter="url(#filter0_d_52_797)">
<path d="M5 10H7.44444H27" stroke="white" stroke-width="2" stroke-linecap="round" stroke-linejoin="round"/>
<path d="M24 10.8V26.6C24 27.2365 23.7441 27.847 23.2887 28.2971C22.8332 28.7471 22.2155 29 21.5714 29H9.42857C8.78447 29 8.16676 28.7471 7.71131 28.2971C7.25587 27.847 7 27.2365 7 26.6C7 26.6 7 17.3608 7 10.8M10.6429 9.8V7.4C10.6429 6.76348 10.8987 6.15303 11.3542 5.70294C11.8096 5.25286 12.4273 5 13.0714 5H17.9286C18.5727 5 19.1904 5.25286 19.6458 5.70294C20.1013 6.15303 20.3571 6.76348 20.3571 7.4V9.8" stroke="white" stroke-width="2" stroke-linecap="round" stroke-linejoin="round"/>
<path d="M13 16V23" stroke="white" stroke-width="2" stroke-linecap="round" stroke-linejoin="round"/>
<path d="M18 16V23" stroke="white" stroke-width="2" stroke-linecap="round" stroke-linejoin="round"/>
</g>
<defs>
<filter id="filter0_d_52_797" x="0" y="0" width="32" height="34" filterUnits="userSpaceOnUse" color-interpolation-filters="sRGB">
<feFlood flood-opacity="0" result="BackgroundImageFix"/>
<feColorMatrix in="SourceAlpha" type="matrix" values="0 0 0 0 0 0 0 0 0 0 0 0 0 0 0 0 0 0 127 0" result="hardAlpha"/>
<feOffset/>
<feGaussianBlur stdDeviation="2"/>
<feComposite in2="hardAlpha" operator="out"/>
<feColorMatrix type="matrix" values="0 0 0 0 0 0 0 0 0 0 0 0 0 0 0 0 0 0 0.5 0"/>
<feBlend mode="normal" in2="BackgroundImageFix" result="effect1_dropShadow_52_797"/>
<feBlend mode="normal" in="SourceGraphic" in2="effect1_dropShadow_52_797" result="shape"/>
</filter>
</defs>
</svg>
