<svg width="25" height="25" viewBox="0 0 25 25" fill="none" xmlns="http://www.w3.org/2000/svg">
<path d="M23 14.8V23.04C23 23.5702 22.5702 24 22.04 24H1.96C1.42981 24 1 23.5702 1 23.04V2.96C1 2.42981 1.42981 2 1.96 2H10.2" stroke="white" stroke-width="2" stroke-linecap="round" stroke-linejoin="round"/>
<path d="M21.3978 7.19564L21.3937 7.19971M6.80005 17.7371C6.8081 18.0006 7.02805 18.2077 7.29148 18.1998L11.6633 16.9998L16.5305 12.0977L21.3937 7.19971M6.80005 17.7371C6.80005 17.7276 6.80005 17.7181 6.80005 17.7086M6.80005 17.7371V17.7086M6.80005 17.7086L8.00005 13.4L12.9004 8.49974L17.8007 3.59945M17.8021 3.59799L19.7036 1.6965C20.641 0.759416 22.1605 0.759364 23.0979 1.69638L23.3034 1.90155C24.2396 2.83763 24.241 4.35503 23.3065 5.29281L21.4 7.206L21.3937 7.19971" stroke="white" stroke-width="2" stroke-linecap="round" stroke-linejoin="round"/>
<path d="M18 4L19.75 5.75L21.5 7.5" stroke="white" stroke-width="2"/>
</svg>
