<svg width="24" height="24" viewBox="0 0 24 24" fill="none" xmlns="http://www.w3.org/2000/svg">
<path d="M13.0771 24H10.9175C10.1277 23.9992 9.37048 23.7047 8.81182 23.1812C8.25317 22.6576 7.93874 21.9476 7.93747 21.207V20.268C7.93721 20.2198 7.92368 20.1726 7.89817 20.1308C7.87266 20.089 7.83604 20.0541 7.79189 20.0295L6.71055 19.4385C6.666 19.4146 6.6155 19.4019 6.56415 19.4019C6.5128 19.4019 6.46235 19.4146 6.4178 19.4385L5.55559 19.905C5.21718 20.0899 4.84291 20.2098 4.45458 20.2577C4.06624 20.3056 3.67161 20.2806 3.29371 20.184C2.91476 20.0898 2.55947 19.9261 2.24839 19.7023C1.93731 19.4786 1.67662 19.1993 1.48133 18.8805L0.395156 17.1105C0.00340787 16.4692 -0.102041 15.7086 0.101718 14.9946C0.305477 14.2806 0.801958 13.6711 1.48294 13.299L2.35955 12.825C2.40423 12.8004 2.44128 12.7654 2.46709 12.7233C2.4929 12.6812 2.50654 12.6336 2.50668 12.585V11.415C2.50654 11.3664 2.4929 11.3188 2.46709 11.2767C2.44128 11.2346 2.40423 11.1996 2.35955 11.175L1.48455 10.701C0.802975 10.3294 0.305864 9.71997 0.101767 9.00586C-0.102331 8.29175 0.00311446 7.53092 0.395156 6.88948L1.48133 5.11949C1.67662 4.80072 1.93731 4.5214 2.24839 4.29767C2.55947 4.07394 2.91476 3.91024 3.29371 3.81601C3.67163 3.719 4.06642 3.69382 4.45487 3.74199C4.84331 3.79016 5.21756 3.91068 5.55559 4.09648L6.41618 4.56148C6.46076 4.58615 6.5116 4.5992 6.56337 4.5992C6.61513 4.5992 6.66597 4.58615 6.71055 4.56148L7.79189 3.97051C7.83604 3.94591 7.87266 3.911 7.89817 3.8692C7.92368 3.82741 7.93721 3.78016 7.93747 3.73201V2.793C7.93874 2.05236 8.25317 1.34242 8.81182 0.818848C9.37048 0.295273 10.1277 0.0007933 10.9175 0H13.0819C13.872 0.000396309 14.6297 0.294681 15.1887 0.818298C15.7477 1.34192 16.0623 2.0521 16.0636 2.793V3.73201C16.0638 3.77999 16.0772 3.82713 16.1024 3.86888C16.1276 3.91064 16.1638 3.94562 16.2075 3.97051L17.2905 4.56148C17.3348 4.58617 17.3853 4.59924 17.4368 4.59924C17.4884 4.59924 17.539 4.58617 17.5832 4.56148L18.4438 4.09502C18.7823 3.90958 19.1569 3.78935 19.5456 3.74144C19.9343 3.69353 20.3292 3.7189 20.7073 3.81601C21.0862 3.91003 21.4413 4.07368 21.7521 4.29744C22.063 4.5212 22.3233 4.80062 22.5181 5.11949L23.6042 6.88948C23.9964 7.53074 24.1021 8.29145 23.8983 9.00554C23.6946 9.71963 23.1978 10.3291 22.5165 10.701L21.6399 11.175C21.5952 11.1996 21.5581 11.2346 21.5323 11.2767C21.5065 11.3188 21.4929 11.3664 21.4927 11.415V12.585C21.4929 12.6336 21.5065 12.6812 21.5323 12.7233C21.5581 12.7654 21.5952 12.8004 21.6399 12.825L22.5149 13.299C23.1968 13.6703 23.6942 14.2797 23.8983 14.994C24.1024 15.7082 23.9967 16.4692 23.6042 17.1105L22.5181 18.8805C22.3233 19.1994 22.063 19.4788 21.7521 19.7026C21.4413 19.9263 21.0862 20.09 20.7073 20.184C20.3291 20.2808 19.9341 20.3059 19.5454 20.2577C19.1568 20.2095 18.7823 20.0891 18.4438 19.9035L17.5848 19.4385C17.54 19.4146 17.4893 19.402 17.4377 19.402C17.3861 19.402 17.3353 19.4146 17.2905 19.4385L16.2075 20.0295C16.1638 20.0544 16.1276 20.0894 16.1024 20.1311C16.0772 20.1729 16.0638 20.22 16.0636 20.268V21.207C16.0623 21.9487 15.747 22.6596 15.187 23.1833C14.6269 23.7071 13.868 24.0008 13.0771 24ZM6.55697 17.9055C6.89411 17.9046 7.22543 17.9879 7.51676 18.147L8.5981 18.747C8.88307 18.9028 9.11952 19.126 9.28398 19.3941C9.44844 19.6623 9.53516 19.9662 9.53549 20.2755V21.2145C9.53591 21.5588 9.68204 21.8888 9.94179 22.1321C10.2015 22.3753 10.5536 22.512 10.9208 22.512H13.0851C13.4523 22.512 13.8046 22.3754 14.0646 22.1321C14.3246 21.8889 14.4711 21.5589 14.4719 21.2145V20.2755C14.4724 19.9664 14.559 19.6627 14.7232 19.3946C14.8873 19.1265 15.1233 18.9032 15.4077 18.747L16.4891 18.147C16.7774 17.9907 17.1046 17.9084 17.4377 17.9084C17.7707 17.9084 18.0979 17.9907 18.3862 18.147L19.2453 18.612C19.4024 18.6989 19.5765 18.7553 19.7574 18.7777C19.9382 18.8001 20.122 18.7881 20.2978 18.7425C20.4732 18.6997 20.6378 18.6247 20.782 18.5217C20.9262 18.4187 21.0471 18.2898 21.1376 18.1425L22.2253 16.374C22.4072 16.0757 22.4559 15.7221 22.361 15.3903C22.266 15.0585 22.035 14.7753 21.7183 14.6025L20.8449 14.127C20.5583 13.9713 20.3202 13.7477 20.1546 13.4787C19.989 13.2097 19.9015 12.9046 19.9011 12.594V11.424C19.9015 11.1134 19.989 10.8083 20.1546 10.5393C20.3202 10.2703 20.5583 10.0467 20.8449 9.89099L21.7199 9.41551C22.0363 9.24246 22.267 8.95914 22.3616 8.62734C22.4563 8.29553 22.4073 7.94211 22.2253 7.64401L21.1376 5.87549C21.0471 5.72823 20.9262 5.59938 20.782 5.49637C20.6378 5.39336 20.4732 5.31826 20.2978 5.2755C19.9425 5.18657 19.5642 5.23294 19.2453 5.4045L18.3846 5.871C18.0969 6.02834 17.7699 6.11124 17.4368 6.11124C17.1038 6.11124 16.7767 6.02834 16.4891 5.871L15.4077 5.27101C15.1233 5.11474 14.8873 4.89151 14.7232 4.62341C14.559 4.35531 14.4724 4.05163 14.4719 3.74249V2.80348C14.4711 2.45909 14.3246 2.12909 14.0646 1.88585C13.8046 1.64261 13.4523 1.506 13.0851 1.506H10.9175C10.5504 1.506 10.1983 1.64266 9.93857 1.88594C9.67882 2.12923 9.53269 2.45923 9.53226 2.80348V3.74249C9.53194 4.05184 9.44527 4.35571 9.28081 4.62387C9.11635 4.89204 8.87985 5.11516 8.59488 5.27101L7.51354 5.871C7.2254 6.02788 6.89816 6.11051 6.56498 6.11051C6.23179 6.11051 5.90451 6.02788 5.61637 5.871L4.759 5.40601C4.60145 5.32011 4.42728 5.26434 4.24661 5.24194C4.06595 5.21954 3.88234 5.23095 3.70641 5.2755C3.53076 5.31824 3.36591 5.39327 3.22146 5.49628C3.07701 5.59928 2.95585 5.72819 2.865 5.87549L1.77726 7.64401C1.59542 7.94229 1.54671 8.29587 1.6417 8.6277C1.73668 8.95953 1.96769 9.24271 2.28437 9.41551L3.15775 9.89099C3.4444 10.0467 3.6824 10.2703 3.84803 10.5393C4.01365 10.8083 4.10107 11.1134 4.10153 11.424V12.594C4.10107 12.9046 4.01365 13.2097 3.84803 13.4787C3.6824 13.7477 3.4444 13.9713 3.15775 14.127L2.28276 14.6025C1.96635 14.7755 1.73569 15.0588 1.64101 15.3907C1.54633 15.7225 1.59529 16.0759 1.77726 16.374L2.865 18.1425C2.95585 18.2898 3.07701 18.4187 3.22146 18.5217C3.36591 18.6247 3.53076 18.6998 3.70641 18.7425C3.88214 18.788 4.06583 18.8001 4.24661 18.7779C4.4274 18.7558 4.60164 18.6999 4.759 18.6135L5.61798 18.147C5.90283 17.9904 6.22676 17.9071 6.55697 17.9055ZM12.0229 16.839C10.6548 16.8374 9.34319 16.3271 8.37579 15.42C7.40839 14.5128 6.86421 13.2829 6.86252 12C6.86421 10.7171 7.40839 9.48719 8.37579 8.58005C9.34319 7.6729 10.6548 7.16257 12.0229 7.16098C13.3913 7.16217 14.7033 7.67236 15.671 8.57955C16.6388 9.48673 17.1832 10.7168 17.1849 12C17.1832 13.2832 16.6388 14.5133 15.671 15.4205C14.7033 16.3276 13.3913 16.8378 12.0229 16.839ZM12.0229 8.6565C11.0776 8.65769 10.1715 9.01035 9.50307 9.63712C8.83467 10.2639 8.45859 11.1136 8.45732 12C8.45859 12.8864 8.83467 13.7361 9.50307 14.3629C10.1715 14.9897 11.0776 15.3423 12.0229 15.3435C12.9686 15.3427 13.8753 14.9903 14.5443 14.3635C15.2133 13.7368 15.59 12.8868 15.5917 12C15.59 11.1132 15.2133 10.2632 14.5443 9.63648C13.8753 9.00971 12.9686 8.65729 12.0229 8.6565Z" fill="white"/>
</svg>
