<svg width="33" height="33" viewBox="0 0 33 33" fill="none" xmlns="http://www.w3.org/2000/svg">
<path d="M31.5197 31.4104C31.0415 31.8852 30.395 32.1517 29.7211 32.1517C29.0472 32.1517 28.4007 31.8852 27.9225 31.4104L20.129 23.6169C17.4841 25.3694 14.2826 26.077 11.1455 25.6023C8.00841 25.1277 5.15947 23.5047 3.15142 21.0482C1.14337 18.5917 0.119383 15.4769 0.278125 12.3081C0.436866 9.13931 1.76702 6.14244 4.01052 3.89894C6.25401 1.65545 9.25089 0.325294 12.4197 0.166552C15.5885 0.00781101 18.7033 1.0318 21.1598 3.03985C23.6163 5.0479 25.2393 7.89684 25.7139 11.0339C26.1885 14.171 25.481 17.3725 23.7285 20.0174L31.5197 27.8109C31.9952 28.2892 32.2621 28.9362 32.2621 29.6107C32.2621 30.2851 31.9952 30.9321 31.5197 31.4104ZM16.9174 22.4507C19.2923 21.4909 21.2244 19.6808 22.337 17.3735C23.4495 15.0663 23.6627 12.4273 22.9348 9.9714C22.207 7.51549 20.5904 5.41878 18.4004 4.09024C16.2104 2.76171 13.604 2.29664 11.0896 2.78575C8.57527 3.27486 6.33328 4.68307 4.80098 6.7357C3.26868 8.78832 2.55597 11.3382 2.80186 13.8878C3.04776 16.4375 4.23463 18.8041 6.13096 20.5261C8.02729 22.248 10.4971 23.2018 13.0586 23.2014C14.3806 23.2035 15.6927 22.9485 16.9174 22.4507Z" fill="#FEA500"/>
</svg>
