<svg width="26" height="26" viewBox="0 0 26 26" fill="none" xmlns="http://www.w3.org/2000/svg">
<path d="M13.6316 23.7368H1.75789C1.33932 23.7368 1 23.3976 1 22.9789V1.75789C1 1.33932 1.33932 1 1.75789 1H22.9789C23.3976 1 23.7368 1.33932 23.7368 1.75789V13.6316" stroke="#FEA500" stroke-width="2" stroke-linecap="round" stroke-linejoin="round"/>
<path d="M1 17.421L9.84211 13.6315L16.7895 16.7894" stroke="#FEA500" stroke-width="2" stroke-linecap="round" stroke-linejoin="round"/>
<path d="M17.4212 9.84212C16.0259 9.84212 14.8949 8.71105 14.8949 7.31581C14.8949 5.92056 16.0259 4.78949 17.4212 4.78949C18.8165 4.78949 19.9475 5.92056 19.9475 7.31581C19.9475 8.71105 18.8165 9.84212 17.4212 9.84212Z" stroke="#FEA500" stroke-width="2" stroke-linecap="round" stroke-linejoin="round"/>
<path d="M17.421 21.2105H21.2105M21.2105 21.2105H25M21.2105 21.2105V17.421M21.2105 21.2105V25" stroke="#FEA500" stroke-width="2" stroke-linecap="round" stroke-linejoin="round"/>
</svg>
