<svg width="24" height="30" viewBox="0 0 24 26" fill="none" xmlns="http://www.w3.org/2000/svg">
<path d="M1 6H3.44444H23" stroke="#FEA500" stroke-width="2" stroke-linecap="round" stroke-linejoin="round"/>
<path d="M20 5.8V22.6C20 23.2365 19.7441 23.847 19.2887 24.2971C18.8332 24.7471 18.2155 25 17.5714 25H5.42857C4.78447 25 4.16676 24.7471 3.71131 24.2971C3.25587 23.847 3 23.2365 3 22.6V5.8M6.64286 5.8V3.4C6.64286 2.76348 6.89872 2.15303 7.35417 1.70294C7.80962 1.25286 8.42733 1 9.07143 1H13.9286C14.5727 1 15.1904 1.25286 15.6458 1.70294C16.1013 2.15303 16.3571 2.76348 16.3571 3.4V5.8" stroke="#FEA500" stroke-width="2" stroke-linecap="round" stroke-linejoin="round"/>
<path d="M9 12V19" stroke="#FEA500" stroke-width="2" stroke-linecap="round" stroke-linejoin="round"/>
<path d="M14 12V19" stroke="#FEA500" stroke-width="2" stroke-linecap="round" stroke-linejoin="round"/>
</svg>
