<svg width="32" height="32" viewBox="0 0 32 32" fill="none" xmlns="http://www.w3.org/2000/svg">
<g clip-path="url(#clip0_26_45)">
<path d="M19.1962 17.3625V18.18H21.3262V29.6665C21.3262 30.9551 22.3707 31.9995 23.6591 31.9995H23.6592C24.9476 31.9995 25.9921 30.9551 25.9921 29.6665V0.000549316C21.6229 4.72664 19.1962 10.9263 19.1962 17.3625Z" fill="#FEA500"/>
<path d="M12.5026 0V10.6001H11.1693V0H9.57383V10.6001H8.24051V0H6.00793V9.39599C6.00793 11.1073 6.83554 12.7128 8.22933 13.7055V29.8578C8.22933 31.0409 9.18843 32.0001 10.3715 32.0001C11.5547 32.0001 12.5138 31.0409 12.5138 29.8578V13.7055C13.9075 12.7127 14.7351 11.1073 14.7351 9.39599V0H12.5026Z" fill="#FEA500"/>
</g>
<defs>
<clipPath id="clip0_26_45">
<rect width="32" height="32" fill="white"/>
</clipPath>
</defs>
</svg>
