<svg width="36" height="27" viewBox="0 0 36 27" fill="none" xmlns="http://www.w3.org/2000/svg">
<path d="M34.7216 17.976C35.1069 17.976 35.2996 18.4973 35.2996 19.54C35.2996 20.1067 35.0616 20.798 34.5856 21.614C34.1096 22.4073 33.4862 23.144 32.7156 23.824C31.9676 24.4813 31.1289 25.0253 30.1996 25.456C29.2702 25.8867 28.2842 26.102 27.2416 26.102C26.2216 26.102 25.4169 25.7733 24.8276 25.116C24.2609 24.436 23.9776 23.688 23.9776 22.872C23.9776 22.0333 24.1136 21.0927 24.3856 20.05C24.6576 19.0073 24.9522 17.9193 25.2696 16.786C26.1309 13.7713 26.5729 11.652 26.5956 10.428C26.5956 9.90667 26.5276 9.51001 26.3916 9.23801C26.2556 8.94334 25.9949 8.79601 25.6096 8.79601C24.9296 8.79601 24.2042 9.20401 23.4336 10.02C22.6629 10.836 21.9376 11.8787 21.2576 13.148C19.6936 16.0493 18.8662 18.8827 18.7756 21.648C18.8209 21.9653 18.8662 22.2827 18.9116 22.6C18.9569 22.9173 18.9796 23.2573 18.9796 23.62C18.9796 24.3453 18.6169 25.014 17.8916 25.626C17.1889 26.2153 16.3956 26.51 15.5116 26.51C14.9902 26.51 14.6049 26.2607 14.3556 25.762C14.1062 25.2407 13.9816 24.606 13.9816 23.858C13.9816 23.11 14.1516 22.09 14.4916 20.798C14.8316 19.506 15.2056 18.1347 15.6136 16.684C16.7016 12.8533 17.2569 9.99734 17.2796 8.11601C17.2796 7.16401 17.1549 6.41601 16.9056 5.87201C16.6789 5.32801 16.2256 5.05601 15.5456 5.05601C14.3216 5.05601 13.1089 5.92867 11.9076 7.67401C10.7062 9.41934 9.62958 12.128 8.67758 15.8C8.42824 16.752 8.23558 17.5793 8.09958 18.282L8.06558 18.928C8.49624 21.0133 8.71158 22.3733 8.71158 23.008C8.71158 24.3227 8.24691 25.2067 7.31757 25.66C6.88691 25.864 6.46758 26.0567 6.05958 26.238C5.67424 26.4193 5.25491 26.51 4.80158 26.51C3.66824 26.51 3.10158 25.4333 3.10158 23.28C3.10158 21.104 3.70224 16.8653 4.90358 10.564C5.33424 8.29734 5.54957 7.02801 5.54957 6.75601C5.54957 4.92001 5.08491 4.00201 4.15558 4.00201C3.83824 4.00201 3.54358 4.09267 3.27157 4.27401C3.02224 4.45534 2.76157 4.64801 2.48957 4.85201C2.24024 5.05601 1.97958 5.24867 1.70757 5.43001C1.43557 5.61134 1.11824 5.70201 0.755575 5.70201C0.415575 5.70201 0.245575 5.39601 0.245575 4.78401C0.245575 3.53734 0.823575 2.51734 1.97958 1.72401C3.09024 0.908006 4.43891 0.500006 6.02558 0.500006C8.06558 0.500006 9.26691 1.45201 9.62958 3.35601C9.72024 3.92267 9.78824 4.52334 9.83358 5.15801C11.5109 2.00734 13.6302 0.432007 16.1916 0.432007C18.9796 0.432007 20.5776 1.76934 20.9856 4.44401C21.1216 5.21467 21.1782 6.04201 21.1556 6.92601V7.19801C22.6289 5.15801 24.3742 4.13801 26.3916 4.13801C29.2476 4.13801 30.6756 5.86067 30.6756 9.30601C30.6756 10.802 30.4376 12.5587 29.9616 14.576C29.5082 16.5707 29.1682 18.01 28.9416 18.894C28.7376 19.7553 28.6356 20.424 28.6356 20.9C28.6356 21.7613 28.9302 22.192 29.5196 22.192C30.1316 22.192 31.5709 21.0133 33.8376 18.656C34.2456 18.2027 34.5402 17.976 34.7216 17.976Z" fill="url(#paint0_linear_82_166)"/>
<defs>
<linearGradient id="paint0_linear_82_166" x1="0.245575" y1="5.97674" x2="38.6662" y2="19.8657" gradientUnits="userSpaceOnUse">
<stop stop-color="#FEA500"/>
<stop offset="1" stop-color="#FE9800"/>
</linearGradient>
</defs>
</svg>
