<svg width="100" height="100" viewBox="0 0 100 100" fill="none" xmlns="http://www.w3.org/2000/svg">
<rect width="100" height="100" fill="url(#paint0_linear_228_168)"/>
<path d="M54.7464 52.2727V53.6363H58.2993V72.7956C58.2993 74.9451 60.0415 76.6872 62.1906 76.6872H62.1907C64.3398 76.6872 66.082 74.9451 66.082 72.7956V23.313C58.7941 31.1961 54.7464 41.5371 54.7464 52.2727Z" fill="white"/>
<path d="M43.5816 23.3121V40.9929H41.3576V23.3121H38.6964V40.9929H36.4725V23.3121H32.7485V38.9846C32.7485 41.839 34.129 44.517 36.4538 46.1729V73.1148C36.4538 75.0882 38.0536 76.6881 40.027 76.6881C42.0005 76.6881 43.6002 75.0882 43.6002 73.1148V46.1729C45.925 44.5168 47.3054 41.839 47.3054 38.9846V23.3121H43.5816Z" fill="white"/>
<defs>
<linearGradient id="paint0_linear_228_168" x1="0" y1="0" x2="110.332" y2="86.8791" gradientUnits="userSpaceOnUse">
<stop stop-color="#FEA500"/>
<stop offset="0.0001" stop-color="#FEC600"/>
<stop offset="1" stop-color="#FE9800"/>
</linearGradient>
</defs>
</svg>
