<svg width="209" height="68" viewBox="0 0 209 68" fill="none" xmlns="http://www.w3.org/2000/svg">
<path d="M65.2398 34.896C65.9651 34.896 66.3278 35.8773 66.3278 37.84C66.3278 38.9067 65.8798 40.208 64.9837 41.744C64.0878 43.2373 62.9144 44.624 61.4638 45.904C60.0558 47.1413 58.4771 48.1653 56.7278 48.976C54.9784 49.7867 53.1224 50.192 51.1598 50.192C49.2398 50.192 47.7251 49.5733 46.6158 48.336C45.5491 47.056 45.0158 45.648 45.0158 44.112C45.0158 42.5333 45.2718 40.7627 45.7838 38.8C46.2958 36.8373 46.8504 34.7893 47.4478 32.656C49.0691 26.9813 49.9011 22.992 49.9438 20.688C49.9438 19.7067 49.8158 18.96 49.5598 18.448C49.3038 17.8933 48.8131 17.616 48.0878 17.616C46.8078 17.616 45.4424 18.384 43.9918 19.92C42.5411 21.456 41.1758 23.4187 39.8958 25.808C36.9518 31.2693 35.3944 36.6027 35.2238 41.808C35.3091 42.4053 35.3944 43.0027 35.4798 43.6C35.5651 44.1973 35.6077 44.8373 35.6077 45.52C35.6077 46.8853 34.9251 48.144 33.5598 49.296C32.2371 50.4053 30.7438 50.96 29.0798 50.96C28.0984 50.96 27.3731 50.4907 26.9038 49.552C26.4344 48.5707 26.1998 47.376 26.1998 45.968C26.1998 44.56 26.5198 42.64 27.1598 40.208C27.7998 37.776 28.5038 35.1947 29.2718 32.464C31.3198 25.2533 32.3651 19.8773 32.4078 16.336C32.4078 14.544 32.1731 13.136 31.7038 12.112C31.2771 11.088 30.4238 10.576 29.1438 10.576C26.8398 10.576 24.5571 12.2187 22.2958 15.504C20.0344 18.7893 18.0078 23.888 16.2158 30.8C15.7464 32.592 15.3838 34.1493 15.1278 35.472L15.0638 36.688C15.8744 40.6133 16.2798 43.1733 16.2798 44.368C16.2798 46.8427 15.4051 48.5067 13.6558 49.36C12.8451 49.744 12.0558 50.1067 11.2878 50.448C10.5624 50.7893 9.77308 50.96 8.91975 50.96C6.78642 50.96 5.71975 48.9333 5.71975 44.88C5.71975 40.784 6.85042 32.8053 9.11175 20.944C9.92242 16.6773 10.3278 14.288 10.3278 13.776C10.3278 10.32 9.45308 8.592 7.70375 8.592C7.10642 8.592 6.55175 8.76266 6.03975 9.104C5.57042 9.44533 5.07975 9.808 4.56775 10.192C4.09842 10.576 3.60775 10.9387 3.09575 11.28C2.58375 11.6213 1.98642 11.792 1.30375 11.792C0.66375 11.792 0.34375 11.216 0.34375 10.064C0.34375 7.71733 1.43175 5.79733 3.60775 4.304C5.69842 2.768 8.23708 2 11.2238 2C15.0638 2 17.3251 3.792 18.0078 7.376C18.1784 8.44267 18.3064 9.57333 18.3918 10.768C21.5491 4.83733 25.5384 1.872 30.3598 1.872C35.6078 1.872 38.6158 4.38933 39.3838 9.424C39.6398 10.8747 39.7464 12.432 39.7038 14.096V14.608C42.4771 10.768 45.7624 8.848 49.5598 8.848C54.9358 8.848 57.6238 12.0907 57.6238 18.576C57.6238 21.392 57.1758 24.6987 56.2798 28.496C55.4264 32.2507 54.7864 34.96 54.3598 36.624C53.9758 38.2453 53.7838 39.504 53.7838 40.4C53.7838 42.0213 54.3384 42.832 55.4478 42.832C56.5998 42.832 59.3091 40.6133 63.5758 36.176C64.3438 35.3227 64.8984 34.896 65.2398 34.896Z" fill="white"/>
<path d="M102.435 34.896C103.203 34.896 103.587 35.8773 103.587 37.84C103.587 38.9067 103.139 40.208 102.243 41.744C101.347 43.2373 100.173 44.624 98.7227 45.904C97.3147 47.1413 95.7361 48.1653 93.9868 48.976C92.2374 49.7867 90.5308 50.192 88.8668 50.192C86.6054 50.192 85.0908 48.208 84.3228 44.24C83.2134 46.0747 81.7627 47.5893 79.9707 48.784C78.1787 49.936 75.7681 50.512 72.7388 50.512C69.7521 50.512 67.3414 49.5733 65.5068 47.696C63.6721 45.8187 62.7761 43.536 62.8187 40.848C62.8187 33.5947 65.2294 27.8773 70.0508 23.696C72.0988 21.9467 73.9974 20.7947 75.7467 20.24C77.5388 19.6853 79.4161 19.408 81.3788 19.408C83.3414 19.408 84.9414 19.7493 86.1787 20.432C86.7761 19.1947 87.4588 18.576 88.2268 18.576C89.7201 18.576 91.1281 19.2373 92.4508 20.56C93.8161 21.84 94.4987 23.056 94.4987 24.208C93.9014 25.616 93.0268 27.3013 91.8748 29.264C91.5334 31.2267 91.3627 33.9787 91.3627 37.52C91.3627 41.0613 91.8107 42.832 92.7067 42.832C93.8161 42.832 96.5041 40.6133 100.771 36.176C101.539 35.3227 102.093 34.896 102.435 34.896ZM72.2268 38.736C72.2268 42.0213 73.4427 43.664 75.8747 43.664C78.4774 43.6213 80.6321 42.2347 82.3388 39.504C82.9361 38.5653 83.4268 37.4133 83.8108 36.048C83.8108 31.2693 84.2374 27.1733 85.0908 23.76C81.6348 24.4427 78.6268 26.1067 76.0667 28.752C73.5067 31.3973 72.2268 34.7253 72.2268 38.736Z" fill="white"/>
<path d="M108.901 18.064C110.437 18.064 111.887 19.536 113.253 22.48C115.258 20.3893 117.733 19.344 120.677 19.344C123.663 19.344 125.903 20.0053 127.397 21.328C128.89 22.608 129.637 24.4427 129.637 26.832C129.637 29.1787 129.317 31.568 128.677 34C128.079 36.432 127.631 38.1813 127.333 39.248C127.077 40.272 126.949 41.1253 126.949 41.808C126.949 42.4907 127.183 42.832 127.653 42.832C128.293 42.832 129.082 42.4267 130.021 41.616C130.959 40.8053 131.898 39.9307 132.837 38.992C133.775 38.0107 134.629 37.1147 135.397 36.304C136.207 35.4933 136.762 35.088 137.061 35.088C137.658 35.088 137.957 35.8133 137.957 37.264C137.957 40.2507 136.485 43.1307 133.541 45.904C128.591 48.8053 125.434 50.256 124.069 50.256C123.941 50.256 123.855 50.2347 123.813 50.192C120.399 50.192 118.693 47.4613 118.693 42C118.693 39.6533 118.906 37.4987 119.333 35.536C119.802 33.5733 120.143 32.144 120.357 31.248C120.57 30.352 120.677 29.4347 120.677 28.496C120.677 26.96 119.781 26.192 117.989 26.192C116.239 26.192 114.554 27.5147 112.933 30.16C111.354 32.7627 110.287 35.472 109.733 38.288V38.736C109.733 40.1867 109.946 41.68 110.373 43.216C110.842 44.752 111.077 45.8187 111.077 46.416C111.077 47.8667 109.263 49.296 105.637 50.704C105.082 50.9173 104.591 51.024 104.165 51.024C103.098 51.024 102.351 50.4693 101.925 49.36C101.541 48.2507 101.349 46.5227 101.349 44.176C101.349 38.1173 101.583 33.744 102.053 31.056C102.693 27.0453 104.143 23.312 106.405 19.856C107.173 18.6613 108.005 18.064 108.901 18.064Z" fill="white"/>
<path d="M159.276 20.88C159.873 19.0027 160.833 18.064 162.156 18.064C163.35 18.1067 164.481 18.96 165.548 20.624C166.614 22.2453 167.148 23.504 167.148 24.4C167.062 26.1493 166.529 28.944 165.548 32.784C164.566 36.5813 163.18 41.5307 161.388 47.632C164.204 45.456 166.977 42.6187 169.708 39.12C170.646 37.9253 171.436 36.9653 172.076 36.24C172.758 35.472 173.313 35.088 173.74 35.088C174.337 35.088 174.636 35.7707 174.636 37.136C174.636 39.824 173.121 42.96 170.092 46.544C167.105 50.128 163.436 52.9227 159.084 54.928C158.572 56.6347 158.017 58.256 157.42 59.792C156.822 61.328 156.054 62.672 155.116 63.824C153.068 66.2987 149.953 67.536 145.772 67.536C142.956 67.536 140.545 66.7253 138.54 65.104C136.577 63.4827 135.596 61.456 135.596 59.024C135.596 57.7013 136.022 56.656 136.876 55.888C137.772 55.12 138.988 54.5013 140.524 54.032C142.06 53.5627 143.852 53.1573 145.9 52.816C147.99 52.4747 150.209 52.048 152.556 51.536C152.769 50.8107 152.94 50.1067 153.068 49.424C153.238 48.6987 153.409 47.9733 153.58 47.248C151.233 49.424 148.353 50.512 144.94 50.512C141.569 50.512 138.966 49.5733 137.132 47.696C135.297 45.8187 134.401 43.536 134.444 40.848C134.444 33.5947 136.854 27.8773 141.676 23.696C145.004 20.8373 148.46 19.408 152.044 19.408C153.281 19.408 154.604 19.5573 156.012 19.856C157.462 20.1547 158.55 20.496 159.276 20.88ZM143.852 38.736C143.852 42.0213 145.068 43.664 147.5 43.664C148.865 43.664 150.252 43.152 151.66 42.128C153.068 41.104 154.198 39.44 155.052 37.136C155.692 34.1493 156.353 31.3973 157.036 28.88C157.761 26.3627 158.252 24.6133 158.508 23.632C154.924 24.1013 151.574 25.7013 148.46 28.432C145.388 31.1627 143.852 34.5973 143.852 38.736ZM150.572 57.424C149.036 57.7227 147.692 57.9573 146.54 58.128C145.388 58.2987 144.428 58.448 143.66 58.576C142.934 58.704 142.38 58.8533 141.996 59.024C141.654 59.1947 141.484 59.472 141.484 59.856C141.484 60.624 141.953 61.2853 142.892 61.84C143.873 62.3947 144.833 62.6507 145.772 62.608C147.393 62.608 148.993 60.88 150.572 57.424Z" fill="white"/>
<path d="M191.355 22.992C191.355 20.1333 193.574 18.704 198.011 18.704C199.121 18.704 199.803 19.0667 200.059 19.792C200.358 20.5173 200.507 21.6267 200.507 23.12C200.507 25.2107 200.038 28.4533 199.099 32.848C198.161 37.2427 197.713 40.208 197.755 41.744C197.755 42.4693 197.99 42.832 198.459 42.832C199.099 42.832 199.889 42.4267 200.827 41.616C201.766 40.8053 202.705 39.9307 203.643 38.992C204.582 38.0107 205.435 37.1147 206.203 36.304C207.014 35.4933 207.569 35.088 207.867 35.088C208.465 35.088 208.763 35.8133 208.763 37.264C208.763 40.2507 207.291 43.1307 204.347 45.904C199.398 48.8053 196.262 50.256 194.939 50.256C194.811 50.256 194.705 50.2347 194.619 50.192C192.998 50.192 191.846 49.6587 191.163 48.592C190.523 47.5253 190.118 46.1813 189.947 44.56C189.094 46.1387 187.921 47.504 186.427 48.656C184.934 49.7653 183.227 50.32 181.307 50.32C177.937 50.32 175.334 49.68 173.499 48.4C171.707 47.12 170.811 45.2213 170.811 42.704C170.811 41.5947 170.961 40.5707 171.259 39.632C171.601 38.6933 172.134 37.5413 172.859 36.176L174.715 20.432C176.038 19.408 177.937 18.896 180.411 18.896C182.374 18.896 183.483 20.176 183.739 22.736C183.953 24.8267 183.846 26.704 183.419 28.368C183.035 29.9893 182.502 32.0587 181.819 34.576C181.137 37.0507 180.795 39.248 180.795 41.168C180.795 42.704 181.755 43.472 183.675 43.472C185.766 43.472 187.579 41.6373 189.115 37.968C190.31 35.152 191.121 32.016 191.547 28.56C191.505 28.2187 191.462 27.792 191.419 27.28C191.419 26.7253 191.398 26.192 191.355 25.68C191.355 25.168 191.355 24.656 191.355 24.144V22.992Z" fill="white"/>
<path d="M159.425 0.728302C157.437 0.728302 147.563 11.5972 147.563 11.5972C147.563 11.5972 149.551 14.5795 152.036 14.0825C154.522 13.5854 158.431 5.20171 158.928 5.20171C159.425 5.20171 160.552 7.1463 160.055 11.1227C159.558 15.099 166.02 14.1049 166.02 12.1168C166.02 10.1286 161.414 0.728302 159.425 0.728302Z" fill="white"/>
</svg>
